<svg xmlns="http://www.w3.org/2000/svg" xmlns:xlink="http://www.w3.org/1999/xlink" width="411" zoomAndPan="magnify" viewBox="0 0 308.25 79.499998" height="106" preserveAspectRatio="xMidYMid meet" version="1.0"><defs><g/><clipPath id="b7a8a4f08e"><path d="M 19.597656 27.816406 L 53.59375 27.816406 L 53.59375 57.519531 L 19.597656 57.519531 Z M 19.597656 27.816406 " clip-rule="nonzero"/></clipPath><clipPath id="616c6ea22d"><path d="M 36.570312 27.816406 L 53.542969 57.519531 L 19.597656 57.519531 Z M 36.570312 27.816406 " clip-rule="nonzero"/></clipPath><clipPath id="46e79f1ce5"><path d="M 19.597656 57.519531 L 71.015625 57.519531 L 71.015625 69.324219 L 19.597656 69.324219 Z M 19.597656 57.519531 " clip-rule="nonzero"/></clipPath><clipPath id="fda6894a73"><path d="M 59.207031 57.519531 C 65.726562 57.519531 71.011719 60.160156 71.011719 63.421875 C 71.011719 66.679688 65.726562 69.324219 59.207031 69.324219 L 31.402344 69.324219 C 24.882812 69.324219 19.597656 66.679688 19.597656 63.421875 C 19.597656 60.160156 24.882812 57.519531 31.402344 57.519531 Z M 59.207031 57.519531 " clip-rule="nonzero"/></clipPath><clipPath id="9171a67f5c"><path d="M 32 9 L 62 9 L 62 55 L 32 55 Z M 32 9 " clip-rule="nonzero"/></clipPath><clipPath id="4fade7e82c"><path d="M 39.160156 7.132812 L 65.007812 51.585938 L 54.800781 57.519531 L 28.953125 13.066406 Z M 39.160156 7.132812 " clip-rule="nonzero"/></clipPath><clipPath id="e378487420"><path d="M 59.070312 41.375 C 62.347656 47.011719 62.722656 52.910156 59.902344 54.550781 C 57.085938 56.1875 52.140625 52.949219 48.863281 47.3125 L 34.886719 23.273438 C 31.609375 17.636719 31.238281 11.738281 34.058594 10.101562 C 36.875 8.460938 41.816406 11.703125 45.09375 17.339844 Z M 59.070312 41.375 " clip-rule="nonzero"/></clipPath><clipPath id="f48b191ce4"><path d="M 3 23 L 34 23 L 34 70 L 3 70 Z M 3 23 " clip-rule="nonzero"/></clipPath><clipPath id="ea4bca2038"><path d="M 0.59375 65.871094 L 26.355469 21.367188 L 36.574219 27.28125 L 10.8125 71.785156 Z M 0.59375 65.871094 " clip-rule="nonzero"/></clipPath><clipPath id="ca182d2665"><path d="M 20.441406 31.589844 C 23.707031 25.945312 28.640625 22.695312 31.464844 24.328125 C 34.285156 25.960938 33.925781 31.859375 30.65625 37.503906 L 16.726562 61.566406 C 13.460938 67.210938 8.523438 70.460938 5.703125 68.828125 C 2.882812 67.195312 3.242188 61.292969 6.507812 55.652344 Z M 20.441406 31.589844 " clip-rule="nonzero"/></clipPath></defs><g clip-path="url(#b7a8a4f08e)"><g clip-path="url(#616c6ea22d)"><path fill="#ffffff" d="M 19.597656 27.816406 L 53.59375 27.816406 L 53.59375 57.519531 L 19.597656 57.519531 Z M 19.597656 27.816406 " fill-opacity="1" fill-rule="nonzero"/></g></g><g clip-path="url(#46e79f1ce5)"><g clip-path="url(#fda6894a73)"><path fill="#21a53d" d="M 19.597656 57.519531 L 71.015625 57.519531 L 71.015625 69.324219 L 19.597656 69.324219 Z M 19.597656 57.519531 " fill-opacity="1" fill-rule="nonzero"/></g></g><g clip-path="url(#9171a67f5c)"><g clip-path="url(#4fade7e82c)"><g clip-path="url(#e378487420)"><path fill="#fac41c" d="M 39.160156 7.132812 L 65.007812 51.585938 L 54.800781 57.519531 L 28.953125 13.066406 Z M 39.160156 7.132812 " fill-opacity="1" fill-rule="nonzero"/></g></g></g><g clip-path="url(#f48b191ce4)"><g clip-path="url(#ea4bca2038)"><g clip-path="url(#ca182d2665)"><path fill="#0668b2" d="M 0.59375 65.871094 L 26.355469 21.367188 L 36.574219 27.28125 L 10.8125 71.785156 Z M 0.59375 65.871094 " fill-opacity="1" fill-rule="nonzero"/></g></g></g><g fill="#0668b2" fill-opacity="1"><g transform="translate(81.944672, 57.113912)"><g><path d="M 11.015625 0 L 4.375 0 L 4.375 -33.609375 L 11.015625 -33.609375 Z M 11.015625 0 "/></g></g></g><g fill="#fac41c" fill-opacity="1"><g transform="translate(97.349432, 57.113912)"><g><path d="M 16.453125 -33.609375 C 21.910156 -33.609375 26.078125 -32.195312 28.953125 -29.375 C 31.828125 -26.550781 33.265625 -22.359375 33.265625 -16.796875 C 33.265625 -11.253906 31.828125 -7.066406 28.953125 -4.234375 C 26.078125 -1.410156 21.910156 0 16.453125 0 L 4.375 0 L 4.375 -33.609375 Z M 16.0625 -5.578125 C 19.53125 -5.578125 22.117188 -6.460938 23.828125 -8.234375 C 25.546875 -10.003906 26.40625 -12.859375 26.40625 -16.796875 C 26.40625 -20.742188 25.546875 -23.597656 23.828125 -25.359375 C 22.117188 -27.128906 19.53125 -28.015625 16.0625 -28.015625 L 11.015625 -28.015625 L 11.015625 -5.578125 Z M 16.0625 -5.578125 "/></g></g></g><g fill="#fac41c" fill-opacity="1"><g transform="translate(133.271981, 57.113912)"><g/></g></g><g fill="#468d41" fill-opacity="1"><g transform="translate(144.377391, 57.113912)"><g><path d="M 4.375 0 L 4.375 -33.609375 L 18.71875 -33.609375 C 20.78125 -33.609375 22.523438 -33.28125 23.953125 -32.625 C 25.390625 -31.976562 26.476562 -31.050781 27.21875 -29.84375 C 27.957031 -28.644531 28.328125 -27.222656 28.328125 -25.578125 C 28.328125 -24.097656 27.960938 -22.789062 27.234375 -21.65625 C 26.515625 -20.519531 25.484375 -19.609375 24.140625 -18.921875 L 24.140625 -18.4375 C 26.253906 -17.882812 27.882812 -16.878906 29.03125 -15.421875 C 30.175781 -13.960938 30.75 -12.175781 30.75 -10.0625 C 30.75 -6.84375 29.78125 -4.359375 27.84375 -2.609375 C 25.90625 -0.867188 23.03125 0 19.21875 0 Z M 17.328125 -20.203125 C 20.421875 -20.203125 21.96875 -21.597656 21.96875 -24.390625 C 21.96875 -25.816406 21.582031 -26.878906 20.8125 -27.578125 C 20.050781 -28.273438 18.890625 -28.625 17.328125 -28.625 L 11.015625 -28.625 L 11.015625 -20.203125 Z M 18.546875 -5.265625 C 22.210938 -5.265625 24.046875 -6.925781 24.046875 -10.25 C 24.046875 -13.59375 22.210938 -15.265625 18.546875 -15.265625 L 11.015625 -15.265625 L 11.015625 -5.265625 Z M 18.546875 -5.265625 "/></g></g></g><g fill="#0668b2" fill-opacity="1"><g transform="translate(177.255588, 57.113912)"><g><path d="M 3.65625 0 L 3.65625 -25.359375 L 9.84375 -25.359375 L 9.84375 -21.578125 L 10.328125 -21.5 C 10.929688 -22.90625 11.734375 -23.9375 12.734375 -24.59375 C 13.734375 -25.25 14.941406 -25.578125 16.359375 -25.578125 C 17.804688 -25.578125 18.90625 -25.332031 19.65625 -24.84375 L 18.578125 -19.359375 L 18.09375 -19.265625 C 17.675781 -19.429688 17.273438 -19.550781 16.890625 -19.625 C 16.515625 -19.707031 16.050781 -19.75 15.5 -19.75 C 13.71875 -19.75 12.359375 -19.125 11.421875 -17.875 C 10.484375 -16.625 10.015625 -14.617188 10.015625 -11.859375 L 10.015625 0 Z M 3.65625 0 "/></g></g></g><g fill="#fac41c" fill-opacity="1"><g transform="translate(197.142485, 57.113912)"><g><path d="M 6.828125 -28.390625 C 5.679688 -28.390625 4.742188 -28.738281 4.015625 -29.4375 C 3.296875 -30.132812 2.9375 -31.035156 2.9375 -32.140625 C 2.9375 -33.222656 3.296875 -34.113281 4.015625 -34.8125 C 4.742188 -35.507812 5.679688 -35.859375 6.828125 -35.859375 C 7.597656 -35.859375 8.28125 -35.695312 8.875 -35.375 C 9.46875 -35.050781 9.929688 -34.609375 10.265625 -34.046875 C 10.597656 -33.492188 10.765625 -32.859375 10.765625 -32.140625 C 10.765625 -31.421875 10.597656 -30.773438 10.265625 -30.203125 C 9.929688 -29.640625 9.46875 -29.195312 8.875 -28.875 C 8.28125 -28.550781 7.597656 -28.390625 6.828125 -28.390625 Z M 3.65625 0 L 3.65625 -25.359375 L 10.015625 -25.359375 L 10.015625 0 Z M 3.65625 0 "/></g></g></g><g fill="#468d41" fill-opacity="1"><g transform="translate(210.795763, 57.113912)"><g><path d="M 12.53125 0.484375 C 10.519531 0.484375 8.742188 0 7.203125 -0.96875 C 5.660156 -1.945312 4.453125 -3.421875 3.578125 -5.390625 C 2.710938 -7.359375 2.28125 -9.785156 2.28125 -12.671875 C 2.28125 -15.566406 2.726562 -18 3.625 -19.96875 C 4.519531 -21.9375 5.757812 -23.40625 7.34375 -24.375 C 8.925781 -25.351562 10.757812 -25.84375 12.84375 -25.84375 C 14.425781 -25.84375 15.796875 -25.566406 16.953125 -25.015625 C 18.109375 -24.472656 19.085938 -23.628906 19.890625 -22.484375 L 20.359375 -22.59375 L 20.359375 -35.53125 L 26.734375 -35.53125 L 26.734375 0 L 20.359375 0 L 20.359375 -3.28125 L 19.890625 -3.375 C 19.179688 -2.1875 18.210938 -1.242188 16.984375 -0.546875 C 15.765625 0.140625 14.28125 0.484375 12.53125 0.484375 Z M 14.59375 -4.921875 C 16.382812 -4.921875 17.800781 -5.5625 18.84375 -6.84375 C 19.882812 -8.125 20.40625 -10.066406 20.40625 -12.671875 C 20.40625 -15.273438 19.882812 -17.21875 18.84375 -18.5 C 17.800781 -19.789062 16.382812 -20.4375 14.59375 -20.4375 C 12.726562 -20.4375 11.300781 -19.8125 10.3125 -18.5625 C 9.320312 -17.3125 8.828125 -15.347656 8.828125 -12.671875 C 8.828125 -10.003906 9.320312 -8.046875 10.3125 -6.796875 C 11.300781 -5.546875 12.726562 -4.921875 14.59375 -4.921875 Z M 14.59375 -4.921875 "/></g></g></g><g fill="#0668b2" fill-opacity="1"><g transform="translate(241.191551, 57.113912)"><g><path d="M 13.15625 10.765625 C 8.96875 10.765625 5.875 10.148438 3.875 8.921875 C 1.882812 7.691406 0.890625 5.984375 0.890625 3.796875 C 0.890625 2.460938 1.316406 1.367188 2.171875 0.515625 C 3.023438 -0.335938 4.25 -0.910156 5.84375 -1.203125 L 5.84375 -1.671875 C 4.976562 -2.191406 4.359375 -2.769531 3.984375 -3.40625 C 3.609375 -4.050781 3.421875 -4.789062 3.421875 -5.625 C 3.421875 -7.664062 4.75 -9.039062 7.40625 -9.75 L 7.40625 -10.234375 C 6.039062 -11.015625 5.007812 -11.984375 4.3125 -13.140625 C 3.625 -14.296875 3.28125 -15.691406 3.28125 -17.328125 C 3.28125 -19.015625 3.664062 -20.5 4.4375 -21.78125 C 5.21875 -23.0625 6.351562 -24.054688 7.84375 -24.765625 C 9.34375 -25.484375 11.132812 -25.84375 13.21875 -25.84375 C 15.332031 -25.84375 17.019531 -25.472656 18.28125 -24.734375 C 19.0625 -25.867188 19.507812 -27.179688 19.625 -28.671875 L 20.109375 -28.96875 L 24.6875 -27.84375 C 24.550781 -26.625 24.195312 -25.601562 23.625 -24.78125 C 23.0625 -23.96875 22.179688 -23.238281 20.984375 -22.59375 L 20.984375 -22.09375 C 22.410156 -20.832031 23.125 -19.078125 23.125 -16.828125 C 23.125 -15.265625 22.734375 -13.863281 21.953125 -12.625 C 21.171875 -11.382812 20.03125 -10.398438 18.53125 -9.671875 C 17.039062 -8.953125 15.269531 -8.59375 13.21875 -8.59375 L 12.25 -8.625 C 11.632812 -8.65625 11.207031 -8.671875 10.96875 -8.671875 C 10.382812 -8.671875 9.925781 -8.507812 9.59375 -8.1875 C 9.269531 -7.875 9.109375 -7.472656 9.109375 -6.984375 C 9.109375 -6.453125 9.320312 -6.035156 9.75 -5.734375 C 10.175781 -5.429688 10.800781 -5.265625 11.625 -5.234375 L 17.3125 -5.03125 C 22.914062 -4.863281 25.71875 -2.453125 25.71875 2.203125 C 25.71875 3.847656 25.300781 5.304688 24.46875 6.578125 C 23.632812 7.859375 22.28125 8.875 20.40625 9.625 C 18.539062 10.382812 16.125 10.765625 13.15625 10.765625 Z M 13.21875 -13.0625 C 14.445312 -13.0625 15.40625 -13.421875 16.09375 -14.140625 C 16.78125 -14.859375 17.125 -15.882812 17.125 -17.21875 C 17.125 -18.550781 16.78125 -19.570312 16.09375 -20.28125 C 15.40625 -21 14.445312 -21.359375 13.21875 -21.359375 C 11.976562 -21.359375 11.019531 -21 10.34375 -20.28125 C 9.664062 -19.570312 9.328125 -18.550781 9.328125 -17.21875 C 9.328125 -15.863281 9.664062 -14.832031 10.34375 -14.125 C 11.019531 -13.414062 11.976562 -13.0625 13.21875 -13.0625 Z M 13.15625 6.140625 C 15.320312 6.140625 16.898438 5.832031 17.890625 5.21875 C 18.878906 4.601562 19.375 3.804688 19.375 2.828125 C 19.375 2.023438 19.117188 1.4375 18.609375 1.0625 C 18.109375 0.6875 17.304688 0.484375 16.203125 0.453125 L 11.1875 0.234375 C 11.019531 0.234375 10.863281 0.222656 10.71875 0.203125 C 10.570312 0.191406 10.429688 0.1875 10.296875 0.1875 C 9.222656 0.1875 8.40625 0.414062 7.84375 0.875 C 7.289062 1.332031 7.015625 1.96875 7.015625 2.78125 C 7.015625 3.851562 7.523438 4.679688 8.546875 5.265625 C 9.578125 5.847656 11.113281 6.140625 13.15625 6.140625 Z M 13.15625 6.140625 "/></g></g></g><g fill="#fac41c" fill-opacity="1"><g transform="translate(267.560307, 57.113912)"><g><path d="M 25.0625 -11.234375 L 8.765625 -11.234375 C 8.941406 -9.035156 9.566406 -7.429688 10.640625 -6.421875 C 11.710938 -5.421875 13.175781 -4.921875 15.03125 -4.921875 C 16.488281 -4.921875 17.671875 -5.191406 18.578125 -5.734375 C 19.484375 -6.273438 20.207031 -7.097656 20.75 -8.203125 L 21.234375 -8.203125 L 25.46875 -5.5 C 24.644531 -3.71875 23.394531 -2.273438 21.71875 -1.171875 C 20.050781 -0.0664062 17.820312 0.484375 15.03125 0.484375 C 12.414062 0.484375 10.148438 -0.0078125 8.234375 -1 C 6.328125 -2 4.859375 -3.484375 3.828125 -5.453125 C 2.796875 -7.421875 2.28125 -9.828125 2.28125 -12.671875 C 2.28125 -15.546875 2.820312 -17.972656 3.90625 -19.953125 C 5 -21.929688 6.472656 -23.40625 8.328125 -24.375 C 10.179688 -25.351562 12.265625 -25.84375 14.578125 -25.84375 C 18.160156 -25.84375 20.90625 -24.890625 22.8125 -22.984375 C 24.71875 -21.085938 25.671875 -18.300781 25.671875 -14.625 C 25.671875 -13.289062 25.625 -12.253906 25.53125 -11.515625 Z M 19.578125 -15.359375 C 19.523438 -17.285156 19.078125 -18.6875 18.234375 -19.5625 C 17.398438 -20.445312 16.179688 -20.890625 14.578125 -20.890625 C 11.359375 -20.890625 9.460938 -19.046875 8.890625 -15.359375 Z M 19.578125 -15.359375 "/></g></g></g></svg>