<svg xmlns="http://www.w3.org/2000/svg" xmlns:xlink="http://www.w3.org/1999/xlink" width="95" zoomAndPan="magnify" viewBox="0 0 71.25 65.249999" height="87" preserveAspectRatio="xMidYMid meet" version="1.0"><defs><clipPath id="29d8c2b169"><path d="M 18.941406 20.574219 L 52.761719 20.574219 L 52.761719 50.125 L 18.941406 50.125 Z M 18.941406 20.574219 " clip-rule="nonzero"/></clipPath><clipPath id="0833f5555c"><path d="M 35.828125 20.574219 L 52.714844 50.125 L 18.941406 50.125 Z M 35.828125 20.574219 " clip-rule="nonzero"/></clipPath><clipPath id="9567359741"><path d="M 18.941406 50.125 L 70.097656 50.125 L 70.097656 61.871094 L 18.941406 61.871094 Z M 18.941406 50.125 " clip-rule="nonzero"/></clipPath><clipPath id="3827ddd675"><path d="M 58.347656 50.125 C 64.835938 50.125 70.09375 52.753906 70.09375 55.996094 C 70.09375 59.242188 64.835938 61.871094 58.347656 61.871094 L 30.6875 61.871094 C 24.199219 61.871094 18.941406 59.242188 18.941406 55.996094 C 18.941406 52.753906 24.199219 50.125 30.6875 50.125 Z M 58.347656 50.125 " clip-rule="nonzero"/></clipPath><clipPath id="b94645b0d7"><path d="M 31 2 L 61 2 L 61 48 L 31 48 Z M 31 2 " clip-rule="nonzero"/></clipPath><clipPath id="ee27d3ed1d"><path d="M 38.40625 0 L 64.121094 44.222656 L 53.964844 50.125 L 28.25 5.902344 Z M 38.40625 0 " clip-rule="nonzero"/></clipPath><clipPath id="e39251d5be"><path d="M 58.214844 34.066406 C 61.472656 39.671875 61.84375 45.539062 59.039062 47.171875 C 56.238281 48.800781 51.320312 45.578125 48.058594 39.96875 L 34.15625 16.054688 C 30.894531 10.449219 30.523438 4.582031 33.328125 2.949219 C 36.132812 1.320312 41.046875 4.542969 44.308594 10.152344 Z M 58.214844 34.066406 " clip-rule="nonzero"/></clipPath><clipPath id="1c4806221c"><path d="M 3 16 L 33 16 L 33 62 L 3 62 Z M 3 16 " clip-rule="nonzero"/></clipPath><clipPath id="7243ca391e"><path d="M 0.0390625 58.433594 L 25.667969 14.160156 L 35.832031 20.042969 L 10.203125 64.316406 Z M 0.0390625 58.433594 " clip-rule="nonzero"/></clipPath><clipPath id="3720930a2a"><path d="M 19.78125 24.328125 C 23.03125 18.714844 27.941406 15.480469 30.75 17.105469 C 33.554688 18.730469 33.195312 24.597656 29.945312 30.214844 L 16.085938 54.152344 C 12.835938 59.765625 7.925781 63 5.121094 61.375 C 2.3125 59.75 2.671875 53.882812 5.921875 48.269531 Z M 19.78125 24.328125 " clip-rule="nonzero"/></clipPath></defs><g clip-path="url(#29d8c2b169)"><g clip-path="url(#0833f5555c)"><path fill="#ffffff" d="M 18.941406 20.574219 L 52.761719 20.574219 L 52.761719 50.125 L 18.941406 50.125 Z M 18.941406 20.574219 " fill-opacity="1" fill-rule="nonzero"/></g></g><g clip-path="url(#9567359741)"><g clip-path="url(#3827ddd675)"><path fill="#21a53d" d="M 18.941406 50.125 L 70.097656 50.125 L 70.097656 61.871094 L 18.941406 61.871094 Z M 18.941406 50.125 " fill-opacity="1" fill-rule="nonzero"/></g></g><g clip-path="url(#b94645b0d7)"><g clip-path="url(#ee27d3ed1d)"><g clip-path="url(#e39251d5be)"><path fill="#fac41c" d="M 38.40625 0 L 64.121094 44.222656 L 53.964844 50.125 L 28.25 5.902344 Z M 38.40625 0 " fill-opacity="1" fill-rule="nonzero"/></g></g></g><g clip-path="url(#1c4806221c)"><g clip-path="url(#7243ca391e)"><g clip-path="url(#3720930a2a)"><path fill="#0668b2" d="M 0.0390625 58.433594 L 25.667969 14.160156 L 35.832031 20.042969 L 10.203125 64.316406 Z M 0.0390625 58.433594 " fill-opacity="1" fill-rule="nonzero"/></g></g></g></svg>